<mxfile host="app.diagrams.net" modified="2024-06-11T23:01:53.828Z" agent="Mozilla/5.0 (Windows NT 10.0; Win64; x64) AppleWebKit/537.36 (KHTML, like Gecko) Chrome/123.0.0.0 Safari/537.36 OPR/109.0.0.0" etag="Jq0c-DJ3FQ2F5Osoh4hM" version="24.5.2" type="google">
  <diagram name="Página-1" id="9laTMpFFBijSH62MME3h">
    <mxGraphModel dx="1009" dy="550" grid="1" gridSize="10" guides="1" tooltips="1" connect="1" arrows="1" fold="1" page="1" pageScale="1" pageWidth="827" pageHeight="1169" math="0" shadow="0">
      <root>
        <mxCell id="0" />
        <mxCell id="1" parent="0" />
        <mxCell id="TuxMxJWO7lmovtN_FOF9-28" value="Usuário" style="swimlane;fontStyle=0;childLayout=stackLayout;horizontal=1;startSize=30;horizontalStack=0;resizeParent=1;resizeParentMax=0;resizeLast=0;collapsible=1;marginBottom=0;whiteSpace=wrap;html=1;" parent="1" vertex="1">
          <mxGeometry x="630" y="760" width="200" height="490" as="geometry" />
        </mxCell>
        <mxCell id="TuxMxJWO7lmovtN_FOF9-29" value="ID" style="text;strokeColor=none;fillColor=none;align=left;verticalAlign=middle;spacingLeft=4;spacingRight=4;overflow=hidden;points=[[0,0.5],[1,0.5]];portConstraint=eastwest;rotatable=0;whiteSpace=wrap;html=1;" parent="TuxMxJWO7lmovtN_FOF9-28" vertex="1">
          <mxGeometry y="30" width="200" height="30" as="geometry" />
        </mxCell>
        <mxCell id="TuxMxJWO7lmovtN_FOF9-30" value="CPF" style="text;strokeColor=none;fillColor=none;align=left;verticalAlign=middle;spacingLeft=4;spacingRight=4;overflow=hidden;points=[[0,0.5],[1,0.5]];portConstraint=eastwest;rotatable=0;whiteSpace=wrap;html=1;" parent="TuxMxJWO7lmovtN_FOF9-28" vertex="1">
          <mxGeometry y="60" width="200" height="30" as="geometry" />
        </mxCell>
        <mxCell id="TuxMxJWO7lmovtN_FOF9-31" value="Nome" style="text;strokeColor=none;fillColor=none;align=left;verticalAlign=middle;spacingLeft=4;spacingRight=4;overflow=hidden;points=[[0,0.5],[1,0.5]];portConstraint=eastwest;rotatable=0;whiteSpace=wrap;html=1;" parent="TuxMxJWO7lmovtN_FOF9-28" vertex="1">
          <mxGeometry y="90" width="200" height="30" as="geometry" />
        </mxCell>
        <mxCell id="TuxMxJWO7lmovtN_FOF9-32" value="Senha" style="text;strokeColor=none;fillColor=none;align=left;verticalAlign=middle;spacingLeft=4;spacingRight=4;overflow=hidden;points=[[0,0.5],[1,0.5]];portConstraint=eastwest;rotatable=0;whiteSpace=wrap;html=1;" parent="TuxMxJWO7lmovtN_FOF9-28" vertex="1">
          <mxGeometry y="120" width="200" height="40" as="geometry" />
        </mxCell>
        <mxCell id="TuxMxJWO7lmovtN_FOF9-33" value="Celular" style="text;html=1;align=left;verticalAlign=middle;whiteSpace=wrap;rounded=0;" parent="TuxMxJWO7lmovtN_FOF9-28" vertex="1">
          <mxGeometry y="160" width="200" height="30" as="geometry" />
        </mxCell>
        <mxCell id="ZR1zis_l2j8A1teouqRp-5" value="Email" style="text;html=1;align=left;verticalAlign=middle;whiteSpace=wrap;rounded=0;" vertex="1" parent="TuxMxJWO7lmovtN_FOF9-28">
          <mxGeometry y="190" width="200" height="30" as="geometry" />
        </mxCell>
        <mxCell id="TuxMxJWO7lmovtN_FOF9-34" value="Dados do cartao" style="text;html=1;align=left;verticalAlign=middle;whiteSpace=wrap;rounded=0;" parent="TuxMxJWO7lmovtN_FOF9-28" vertex="1">
          <mxGeometry y="220" width="200" height="30" as="geometry" />
        </mxCell>
        <mxCell id="TuxMxJWO7lmovtN_FOF9-35" value="Create user()" style="text;html=1;align=left;verticalAlign=middle;whiteSpace=wrap;rounded=0;" parent="TuxMxJWO7lmovtN_FOF9-28" vertex="1">
          <mxGeometry y="250" width="200" height="30" as="geometry" />
        </mxCell>
        <mxCell id="TuxMxJWO7lmovtN_FOF9-36" value="Load user()" style="text;html=1;align=left;verticalAlign=middle;whiteSpace=wrap;rounded=0;" parent="TuxMxJWO7lmovtN_FOF9-28" vertex="1">
          <mxGeometry y="280" width="200" height="30" as="geometry" />
        </mxCell>
        <mxCell id="TuxMxJWO7lmovtN_FOF9-37" value="" style="endArrow=none;html=1;rounded=0;exitX=0;exitY=0;exitDx=0;exitDy=0;entryX=1;entryY=1;entryDx=0;entryDy=0;" parent="TuxMxJWO7lmovtN_FOF9-28" source="TuxMxJWO7lmovtN_FOF9-35" target="TuxMxJWO7lmovtN_FOF9-34" edge="1">
          <mxGeometry width="50" height="50" relative="1" as="geometry">
            <mxPoint x="150" y="180" as="sourcePoint" />
            <mxPoint x="200" y="130" as="targetPoint" />
          </mxGeometry>
        </mxCell>
        <mxCell id="TuxMxJWO7lmovtN_FOF9-38" value="Update user()" style="text;html=1;align=left;verticalAlign=middle;whiteSpace=wrap;rounded=0;" parent="TuxMxJWO7lmovtN_FOF9-28" vertex="1">
          <mxGeometry y="310" width="200" height="30" as="geometry" />
        </mxCell>
        <mxCell id="ZR1zis_l2j8A1teouqRp-1" value="Delete user()" style="text;html=1;align=left;verticalAlign=middle;whiteSpace=wrap;rounded=0;" vertex="1" parent="TuxMxJWO7lmovtN_FOF9-28">
          <mxGeometry y="340" width="200" height="30" as="geometry" />
        </mxCell>
        <mxCell id="ZR1zis_l2j8A1teouqRp-2" value="Adicionar metodo de pagamento()" style="text;html=1;align=left;verticalAlign=middle;whiteSpace=wrap;rounded=0;" vertex="1" parent="TuxMxJWO7lmovtN_FOF9-28">
          <mxGeometry y="370" width="200" height="30" as="geometry" />
        </mxCell>
        <mxCell id="TuxMxJWO7lmovtN_FOF9-39" value="Alterar info do metodo de pagamento()" style="text;html=1;align=left;verticalAlign=middle;whiteSpace=wrap;rounded=0;" parent="TuxMxJWO7lmovtN_FOF9-28" vertex="1">
          <mxGeometry y="400" width="200" height="30" as="geometry" />
        </mxCell>
        <mxCell id="ZR1zis_l2j8A1teouqRp-4" value="Excluir metodo de pagamento()" style="text;html=1;align=left;verticalAlign=middle;whiteSpace=wrap;rounded=0;" vertex="1" parent="TuxMxJWO7lmovtN_FOF9-28">
          <mxGeometry y="430" width="200" height="30" as="geometry" />
        </mxCell>
        <mxCell id="ZR1zis_l2j8A1teouqRp-3" value="Pagar por pix()" style="text;html=1;align=left;verticalAlign=middle;whiteSpace=wrap;rounded=0;" vertex="1" parent="TuxMxJWO7lmovtN_FOF9-28">
          <mxGeometry y="460" width="200" height="30" as="geometry" />
        </mxCell>
        <mxCell id="TuxMxJWO7lmovtN_FOF9-40" value="Documentos" style="swimlane;fontStyle=0;childLayout=stackLayout;horizontal=1;startSize=30;horizontalStack=0;resizeParent=1;resizeParentMax=0;resizeLast=0;collapsible=1;marginBottom=0;whiteSpace=wrap;html=1;" parent="1" vertex="1">
          <mxGeometry x="890" y="760" width="200" height="420" as="geometry" />
        </mxCell>
        <mxCell id="TuxMxJWO7lmovtN_FOF9-41" value="ID" style="text;strokeColor=none;fillColor=none;align=left;verticalAlign=middle;spacingLeft=4;spacingRight=4;overflow=hidden;points=[[0,0.5],[1,0.5]];portConstraint=eastwest;rotatable=0;whiteSpace=wrap;html=1;" parent="TuxMxJWO7lmovtN_FOF9-40" vertex="1">
          <mxGeometry y="30" width="200" height="30" as="geometry" />
        </mxCell>
        <mxCell id="TuxMxJWO7lmovtN_FOF9-42" value="Categoria FK" style="text;strokeColor=none;fillColor=none;align=left;verticalAlign=middle;spacingLeft=4;spacingRight=4;overflow=hidden;points=[[0,0.5],[1,0.5]];portConstraint=eastwest;rotatable=0;whiteSpace=wrap;html=1;" parent="TuxMxJWO7lmovtN_FOF9-40" vertex="1">
          <mxGeometry y="60" width="200" height="30" as="geometry" />
        </mxCell>
        <mxCell id="TuxMxJWO7lmovtN_FOF9-43" value="Tipo FK" style="text;strokeColor=none;fillColor=none;align=left;verticalAlign=middle;spacingLeft=4;spacingRight=4;overflow=hidden;points=[[0,0.5],[1,0.5]];portConstraint=eastwest;rotatable=0;whiteSpace=wrap;html=1;" parent="TuxMxJWO7lmovtN_FOF9-40" vertex="1">
          <mxGeometry y="90" width="200" height="30" as="geometry" />
        </mxCell>
        <mxCell id="TuxMxJWO7lmovtN_FOF9-44" value="Valor" style="text;strokeColor=none;fillColor=none;align=left;verticalAlign=middle;spacingLeft=4;spacingRight=4;overflow=hidden;points=[[0,0.5],[1,0.5]];portConstraint=eastwest;rotatable=0;whiteSpace=wrap;html=1;" parent="TuxMxJWO7lmovtN_FOF9-40" vertex="1">
          <mxGeometry y="120" width="200" height="30" as="geometry" />
        </mxCell>
        <mxCell id="TuxMxJWO7lmovtN_FOF9-45" value="Data" style="text;strokeColor=none;fillColor=none;align=left;verticalAlign=middle;spacingLeft=4;spacingRight=4;overflow=hidden;points=[[0,0.5],[1,0.5]];portConstraint=eastwest;rotatable=0;whiteSpace=wrap;html=1;" parent="TuxMxJWO7lmovtN_FOF9-40" vertex="1">
          <mxGeometry y="150" width="200" height="30" as="geometry" />
        </mxCell>
        <mxCell id="TuxMxJWO7lmovtN_FOF9-46" value="Código NFE" style="text;strokeColor=none;fillColor=none;align=left;verticalAlign=middle;spacingLeft=4;spacingRight=4;overflow=hidden;points=[[0,0.5],[1,0.5]];portConstraint=eastwest;rotatable=0;whiteSpace=wrap;html=1;" parent="TuxMxJWO7lmovtN_FOF9-40" vertex="1">
          <mxGeometry y="180" width="200" height="30" as="geometry" />
        </mxCell>
        <mxCell id="TuxMxJWO7lmovtN_FOF9-47" value="Informações" style="text;strokeColor=none;fillColor=none;align=left;verticalAlign=middle;spacingLeft=4;spacingRight=4;overflow=hidden;points=[[0,0.5],[1,0.5]];portConstraint=eastwest;rotatable=0;whiteSpace=wrap;html=1;" parent="TuxMxJWO7lmovtN_FOF9-40" vertex="1">
          <mxGeometry y="210" width="200" height="30" as="geometry" />
        </mxCell>
        <mxCell id="TuxMxJWO7lmovtN_FOF9-48" value="Atualizar()" style="text;html=1;align=left;verticalAlign=middle;whiteSpace=wrap;rounded=0;" parent="TuxMxJWO7lmovtN_FOF9-40" vertex="1">
          <mxGeometry y="240" width="200" height="30" as="geometry" />
        </mxCell>
        <mxCell id="TuxMxJWO7lmovtN_FOF9-49" value="Deletar()" style="text;html=1;align=left;verticalAlign=middle;whiteSpace=wrap;rounded=0;" parent="TuxMxJWO7lmovtN_FOF9-40" vertex="1">
          <mxGeometry y="270" width="200" height="30" as="geometry" />
        </mxCell>
        <mxCell id="TuxMxJWO7lmovtN_FOF9-50" value="Adicionar()" style="text;html=1;align=left;verticalAlign=middle;whiteSpace=wrap;rounded=0;" parent="TuxMxJWO7lmovtN_FOF9-40" vertex="1">
          <mxGeometry y="300" width="200" height="30" as="geometry" />
        </mxCell>
        <mxCell id="TuxMxJWO7lmovtN_FOF9-51" value="Visualizar()" style="text;html=1;align=left;verticalAlign=middle;whiteSpace=wrap;rounded=0;" parent="TuxMxJWO7lmovtN_FOF9-40" vertex="1">
          <mxGeometry y="330" width="200" height="30" as="geometry" />
        </mxCell>
        <mxCell id="TuxMxJWO7lmovtN_FOF9-52" value="Compartilhar()*" style="text;html=1;align=left;verticalAlign=middle;whiteSpace=wrap;rounded=0;" parent="TuxMxJWO7lmovtN_FOF9-40" vertex="1">
          <mxGeometry y="360" width="200" height="30" as="geometry" />
        </mxCell>
        <mxCell id="TuxMxJWO7lmovtN_FOF9-53" value="" style="endArrow=none;html=1;rounded=0;exitX=0;exitY=0;exitDx=0;exitDy=0;entryX=1;entryY=0;entryDx=0;entryDy=0;" parent="TuxMxJWO7lmovtN_FOF9-40" source="TuxMxJWO7lmovtN_FOF9-48" target="TuxMxJWO7lmovtN_FOF9-48" edge="1">
          <mxGeometry width="50" height="50" relative="1" as="geometry">
            <mxPoint x="60" y="210" as="sourcePoint" />
            <mxPoint x="110" y="160" as="targetPoint" />
            <Array as="points" />
          </mxGeometry>
        </mxCell>
        <mxCell id="TuxMxJWO7lmovtN_FOF9-54" value="Organizar em pastas*()" style="text;html=1;align=left;verticalAlign=middle;whiteSpace=wrap;rounded=0;" parent="TuxMxJWO7lmovtN_FOF9-40" vertex="1">
          <mxGeometry y="390" width="200" height="30" as="geometry" />
        </mxCell>
      </root>
    </mxGraphModel>
  </diagram>
</mxfile>
